<svg width="20" height="20" viewBox="0 0 20 20" fill="none" xmlns="http://www.w3.org/2000/svg">
<path d="M2.5 5.8335H3.98333C5.77667 5.8335 6.67333 5.8335 7.4 6.2135C7.71023 6.37625 7.99287 6.58689 8.2375 6.83766C8.81083 7.4235 9.06833 8.28266 9.58333 10.0002C10.0983 11.7177 10.3567 12.5768 10.9292 13.1627C11.1742 13.4135 11.4567 13.6243 11.7675 13.7868C12.4933 14.1668 13.39 14.1668 15.1842 14.1668H17.5M17.5 14.1668L15 11.6668M17.5 14.1668L15 16.6668" stroke="white" stroke-width="2"/>
<path fill-rule="evenodd" clip-rule="evenodd" d="M18.0892 5.24414L15.5892 2.74414L14.4108 3.92247L15.4883 4.99997H15.1458C14.2808 4.99997 13.5783 4.99997 13.0017 5.04997C12.4042 5.10331 11.8775 5.21497 11.3808 5.47497C11.0094 5.6695 10.6695 5.91898 10.3725 6.21497C10.5733 6.54247 10.7308 6.88164 10.8675 7.22331C10.9617 7.45914 11.0533 7.71747 11.1442 7.99247C11.2384 7.78157 11.3671 7.58781 11.525 7.41914C11.7089 7.23149 11.9212 7.074 12.1542 6.95247C12.3833 6.83164 12.6683 6.75331 13.1483 6.71081C13.6425 6.66747 14.2725 6.66664 15.1833 6.66664H15.4883L14.4108 7.74414L15.5892 8.92247L18.0892 6.42247L18.6783 5.83331L18.0892 5.24414ZM8.79417 13.7858C8.60078 13.4644 8.43518 13.1271 8.29917 12.7775C8.19928 12.5236 8.10701 12.2668 8.0225 12.0075C7.92844 12.2185 7.79972 12.4123 7.64167 12.5808C7.45777 12.7685 7.24544 12.9259 7.0125 13.0475C6.78333 13.1683 6.49833 13.2475 6.01833 13.2891C5.52417 13.3325 4.89417 13.3333 3.98333 13.3333H2.5V15H4.02083C4.88583 15 5.58833 15 6.16417 14.95C6.7625 14.8966 7.28917 14.785 7.78583 14.525C8.15726 14.3304 8.4972 14.0818 8.79417 13.7858Z" fill="white"/>
</svg>
