<svg width="528" height="122" viewBox="0 0 528 122" fill="none" xmlns="http://www.w3.org/2000/svg">
<path d="M61.1501 97.3799C40.2242 97.3799 24 81.6068 24 61.0007C24 40.3946 40.4008 24.3799 61.1501 24.3799C68.898 24.3799 75.1228 26.0495 81.5462 30.2454V43.6898C74.306 37.3191 68.5669 34.7708 60.819 34.7708C46.14 34.7708 35.8315 45.667 35.8315 61.0886C35.8315 76.5102 45.9634 86.7913 60.819 86.7913C68.898 86.7913 74.306 84.5945 81.7228 78.0919V91.3167C74.6592 95.6883 68.898 97.3579 61.1501 97.3579" fill="#00B8B0"/>
<path d="M141.653 97.3799C120.705 97.3799 104.525 81.6288 104.525 61.0007C104.525 40.3727 120.882 24.3799 141.653 24.3799C149.379 24.3799 155.648 26.0495 162.049 30.2454V43.6898C154.765 37.3191 149.048 34.7708 141.322 34.7708C126.599 34.7708 116.334 45.667 116.334 61.0886C116.334 76.5102 126.444 86.7913 141.322 86.7913C149.379 86.7913 154.787 84.5945 162.204 78.0699V91.2947C155.118 95.6664 149.379 97.3579 141.653 97.3579" fill="#00B8B0"/>
<path d="M200.744 26.335L194.63 36.9895H238.446V95.6224H249.726V26.335H200.744Z" fill="#00B8B0"/>
<path d="M280.386 59.2871C280.386 62.824 283.101 65.5261 286.611 65.5261C288.973 65.5261 290.695 64.3837 291.776 62.9997L294.205 65.1526C292.593 67.1956 289.878 68.6236 286.545 68.6236C280.85 68.6236 276.877 64.4936 276.877 59.2871C276.877 54.0807 280.806 49.9507 286.501 49.9507C289.216 49.9507 291.534 50.9612 293.167 52.5429L290.894 54.9374C289.79 53.839 288.267 53.0702 286.457 53.0702C282.991 53.0702 280.386 55.8381 280.386 59.3091V59.2871Z" fill="#231F20"/>
<path d="M308.928 68.3601H305.661V67.3496C304.623 68.2283 303.409 68.6237 302.151 68.6237C300.275 68.6237 298.509 67.789 297.383 66.4928C296.39 65.3505 295.772 63.7908 295.772 62.0773C295.772 58.3646 298.531 55.5088 301.975 55.5088C303.409 55.5088 304.69 55.9701 305.683 56.7829V55.7724H308.95V68.3601H308.928ZM305.528 60.188C304.822 59.2434 303.696 58.6283 302.394 58.6283C300.407 58.6283 299.127 60.2539 299.127 62.0773C299.127 64.0544 300.562 65.5043 302.46 65.5043C303.74 65.5043 304.866 64.8892 305.506 63.9445V60.188H305.528Z" fill="#231F20"/>
<path d="M316.345 68.3599H312.945V49.9287H316.345V68.3599Z" fill="#231F20"/>
<path d="M322.062 49.1597C323.298 49.1597 324.269 50.1043 324.269 51.3125C324.269 52.5208 323.276 53.4654 322.062 53.4654C320.848 53.4654 319.854 52.5208 319.854 51.3125C319.854 50.1043 320.848 49.1597 322.062 49.1597ZM323.761 68.3598H320.362V55.7721H323.761V68.3598Z" fill="#231F20"/>
<path d="M336.41 52.7845C336.123 52.6966 335.703 52.6527 335.394 52.6527C334.555 52.6527 333.915 52.8943 333.496 53.3776C333.209 53.7511 333.032 54.2124 333.032 55.3767V55.7722H336.939V58.628H333.032V68.3599H329.633V58.628H326.366V55.7722H329.633V55.2449C329.633 53.2239 330.096 51.9937 330.979 51.1369C331.862 50.2801 333.187 49.665 334.909 49.665C335.593 49.665 336.211 49.709 336.917 49.9067L336.387 52.7845H336.41Z" fill="#231F20"/>
<path d="M344.842 55.5088C348.683 55.5088 351.574 58.4305 351.574 62.0773C351.574 65.724 348.683 68.6237 344.842 68.6237C341.001 68.6237 338.109 65.724 338.109 62.0773C338.109 58.4305 341.001 55.5088 344.842 55.5088ZM344.842 65.5043C346.828 65.5043 348.175 63.9665 348.175 62.0773C348.175 60.188 346.828 58.6283 344.842 58.6283C342.855 58.6283 341.509 60.188 341.509 62.0773C341.509 63.9665 342.855 65.5043 344.842 65.5043Z" fill="#231F20"/>
<path d="M362.258 58.7601C362.015 58.6722 361.529 58.6283 361.022 58.6283C359.543 58.6283 358.351 59.6827 357.953 60.4516V68.3601H354.554V55.7724H357.821V57.0466C358.572 56.1019 359.962 55.5088 361.507 55.5088C361.993 55.5088 362.28 55.5527 362.655 55.6186L362.258 58.7601Z" fill="#231F20"/>
<path d="M365.392 68.3601V55.7724H368.659V56.7829C369.631 56.0141 370.822 55.5088 372.235 55.5088C373.979 55.5088 375.568 56.2777 376.606 57.5299C377.445 58.5184 377.908 59.7926 377.908 61.9454V68.3601H374.509V61.6818C374.509 60.4296 374.222 59.7926 373.758 59.3312C373.317 58.8919 372.633 58.6283 371.86 58.6283C370.425 58.6283 369.255 59.5289 368.792 60.188V68.3601H365.392Z" fill="#231F20"/>
<path d="M383.382 49.1597C384.619 49.1597 385.59 50.1043 385.59 51.3125C385.59 52.5208 384.596 53.4654 383.382 53.4654C382.168 53.4654 381.175 52.5208 381.175 51.3125C381.175 50.1043 382.168 49.1597 383.382 49.1597ZM385.082 68.3598H381.683V55.7721H385.082V68.3598Z" fill="#231F20"/>
<path d="M401.218 68.3601H397.951V67.3496C396.914 68.2283 395.7 68.6237 394.441 68.6237C392.565 68.6237 390.799 67.789 389.673 66.4928C388.68 65.3505 388.062 63.7908 388.062 62.0773C388.062 58.3646 390.821 55.5088 394.265 55.5088C395.7 55.5088 396.98 55.9701 397.973 56.7829V55.7724H401.24V68.3601H401.218ZM397.819 60.188C397.112 59.2434 395.987 58.6283 394.684 58.6283C392.698 58.6283 391.417 60.2539 391.417 62.0773C391.417 64.0544 392.852 65.5043 394.75 65.5043C396.031 65.5043 397.156 64.8892 397.797 63.9445V60.188H397.819Z" fill="#231F20"/>
<path d="M414.793 59.2871C414.793 62.824 417.508 65.5261 421.018 65.5261C423.402 65.5261 425.102 64.3837 426.183 62.9997L428.612 65.1526C427 67.1956 424.285 68.6236 420.952 68.6236C415.257 68.6236 411.284 64.4936 411.284 59.2871C411.284 54.0807 415.213 49.9507 420.908 49.9507C423.623 49.9507 425.941 50.9612 427.574 52.5429L425.3 54.9374C424.197 53.839 422.674 53.0702 420.864 53.0702C417.398 53.0702 414.793 55.8381 414.793 59.3091V59.2871Z" fill="#231F20"/>
<path d="M436.889 55.5088C440.73 55.5088 443.622 58.4305 443.622 62.0773C443.622 65.724 440.73 68.6237 436.889 68.6237C433.048 68.6237 430.157 65.724 430.157 62.0773C430.157 58.4305 433.048 55.5088 436.889 55.5088ZM436.889 65.5043C438.876 65.5043 440.222 63.9665 440.222 62.0773C440.222 60.188 438.876 58.6283 436.889 58.6283C434.903 58.6283 433.556 60.188 433.556 62.0773C433.556 63.9665 434.903 65.5043 436.889 65.5043Z" fill="#231F20"/>
<path d="M450.023 68.3599H446.624V49.9287H450.023V68.3599Z" fill="#231F20"/>
<path d="M457.418 68.3599H454.018V49.9287H457.418V68.3599Z" fill="#231F20"/>
<path d="M472.207 66.361C470.971 67.8109 468.984 68.6237 467.02 68.6237C463.245 68.6237 460.398 66.0315 460.398 62.0773C460.398 58.5843 462.804 55.5088 466.556 55.5088C470.044 55.5088 472.516 58.4305 472.516 61.9454C472.516 62.275 472.494 62.6265 472.428 62.912H463.665C463.841 64.6695 465.276 65.8997 467.086 65.8997C468.521 65.8997 469.669 65.0869 470.265 64.4498L472.185 66.361H472.207ZM469.051 60.4516C468.94 59.3312 467.925 58.2548 466.556 58.2548C465.188 58.2548 463.996 59.3093 463.841 60.4516H469.051Z" fill="#231F20"/>
<path d="M487.879 67.6572C487.879 69.9199 487.482 71.2599 486.732 72.3364C485.584 73.9181 483.553 74.8627 481.125 74.8627C478.697 74.8627 476.291 73.7203 475.055 72.2705L477.196 70.0736C477.88 70.7986 479.05 71.897 481.125 71.897C482.229 71.897 483.134 71.5675 483.708 70.8865C484.237 70.3153 484.48 69.5464 484.48 67.9208V67.5034C483.465 68.2723 482.361 68.6457 481.081 68.6457C479.205 68.6457 477.394 67.8109 476.291 66.5148C475.297 65.3725 474.701 63.8127 474.701 62.0992C474.701 58.3866 477.461 55.5308 480.904 55.5308C482.339 55.5308 483.619 55.9921 484.613 56.8049V55.7944H487.879V67.6791V67.6572ZM484.48 60.188C483.774 59.2434 482.648 58.6283 481.346 58.6283C479.359 58.6283 478.079 60.2539 478.079 62.0773C478.079 64.0544 479.514 65.5043 481.412 65.5043C482.692 65.5043 483.818 64.8892 484.458 63.9445V60.188H484.48Z" fill="#231F20"/>
<path d="M502.691 66.361C501.455 67.8109 499.468 68.6237 497.504 68.6237C493.729 68.6237 490.882 66.0315 490.882 62.0773C490.882 58.5843 493.288 55.5088 497.04 55.5088C500.528 55.5088 503 58.4305 503 61.9454C503 62.275 502.978 62.6265 502.912 62.912H494.148C494.325 64.6695 495.76 65.8997 497.57 65.8997C499.005 65.8997 500.152 65.0869 500.748 64.4498L502.669 66.361H502.691ZM499.534 60.4516C499.424 59.3312 498.409 58.2548 497.04 58.2548C495.672 58.2548 494.48 59.3093 494.325 60.4516H499.534Z" fill="#231F20"/>
<path d="M283.72 82.793C287.56 82.793 290.452 85.7147 290.452 89.3614C290.452 93.0081 287.56 95.9079 283.72 95.9079C279.879 95.9079 276.987 93.0081 276.987 89.3614C276.987 85.7147 279.879 82.793 283.72 82.793ZM283.72 92.7885C285.706 92.7885 287.053 91.2507 287.053 89.3614C287.053 87.4722 285.706 85.9124 283.72 85.9124C281.733 85.9124 280.386 87.4722 280.386 89.3614C280.386 91.2507 281.733 92.7885 283.72 92.7885Z" fill="#231F20"/>
<path d="M301.798 80.0692C301.511 79.9813 301.092 79.9374 300.783 79.9374C299.944 79.9374 299.304 80.179 298.884 80.6623C298.597 81.0358 298.421 81.4971 298.421 82.6614V83.0568H302.328V85.9127H298.421V95.6446H295.021V85.9127H291.754V83.0568H295.021V82.5296C295.021 80.5085 295.485 79.2783 296.368 78.4216C297.251 77.5648 298.575 76.9497 300.297 76.9497C300.981 76.9497 301.599 76.9936 302.306 77.1914L301.776 80.0692H301.798Z" fill="#231F20"/>
<path d="M321.775 95.6446C321.333 95.7984 320.318 95.9082 319.656 95.9082C317.625 95.9082 316.146 95.2272 315.285 94.0849C314.623 93.2281 314.336 92.1078 314.336 90.3283V85.9127H310.826V83.0569H314.336V79.564H317.735V83.0569H321.907V85.9127H317.735V90.7238C317.735 91.4926 317.868 91.9759 318.155 92.3055C318.486 92.7009 319.037 92.9206 319.876 92.9206C320.362 92.9206 321.024 92.8327 321.267 92.7888L321.797 95.6446H321.775Z" fill="#231F20"/>
<path d="M328.154 95.6446H324.755V77.2134H328.154V83.9576C329.103 83.2326 330.295 82.7933 331.597 82.7933C333.341 82.7933 334.931 83.5622 335.968 84.8143C336.807 85.8029 337.27 87.0771 337.27 89.2299V95.6446H333.871V88.9663C333.871 87.7141 333.584 87.0771 333.121 86.6157C332.679 86.1764 331.995 85.9127 331.222 85.9127C329.787 85.9127 328.617 86.8134 328.154 87.4725V95.6446Z" fill="#231F20"/>
<path d="M351.839 93.6452C350.603 95.0951 348.616 95.9079 346.652 95.9079C342.877 95.9079 340.03 93.3157 340.03 89.3614C340.03 85.8685 342.436 82.793 346.188 82.793C349.676 82.793 352.17 85.7147 352.17 89.2296C352.17 89.5591 352.148 89.9106 352.082 90.1962H343.319C343.495 91.9537 344.93 93.1839 346.74 93.1839C348.175 93.1839 349.323 92.3711 349.919 91.734L351.839 93.6452ZM348.683 87.7358C348.572 86.6154 347.557 85.539 346.188 85.539C344.82 85.539 343.628 86.5935 343.473 87.7358H348.683Z" fill="#231F20"/>
<path d="M360.36 95.6442L368.174 77.4766H370.646L378.46 95.6442H374.774L373.052 91.624H365.723L364.002 95.6442H360.315H360.36ZM367.092 88.5045H371.728L369.41 83.1224L367.092 88.5045Z" fill="#231F20"/>
<path d="M388.04 86.0442C387.797 85.9564 387.312 85.9124 386.804 85.9124C385.325 85.9124 384.155 86.9669 383.736 87.7358V95.6443H380.336V83.0566H383.603V84.3307C384.354 83.3861 385.744 82.793 387.289 82.793C387.775 82.793 388.062 82.8369 388.437 82.9028L388.04 86.0442Z" fill="#231F20"/>
<path d="M401.196 95.6446C400.754 95.7984 399.739 95.9082 399.077 95.9082C397.046 95.9082 395.567 95.2272 394.706 94.0849C394.044 93.2281 393.757 92.1078 393.757 90.3283V85.9127H390.247V83.0569H393.757V79.564H397.156V83.0569H401.328V85.9127H397.156V90.7238C397.156 91.4926 397.289 91.9759 397.576 92.3055C397.907 92.7009 398.459 92.9206 399.298 92.9206C399.783 92.9206 400.445 92.8327 400.688 92.7888L401.218 95.6446H401.196Z" fill="#231F20"/>
<path d="M405.103 91.7999C405.964 92.5688 407.288 93.0521 408.569 93.0521C409.474 93.0521 410.18 92.6127 410.18 91.9976C410.18 90.1084 404.043 90.7674 404.043 86.7253C404.043 84.3088 406.383 82.8149 408.9 82.8149C410.533 82.8149 412.343 83.43 413.182 84.0891L411.593 86.5276C410.93 86.0662 410.07 85.6708 409.165 85.6708C408.26 85.6708 407.443 86.0443 407.443 86.6813C407.443 88.307 413.579 87.6699 413.579 92.0196C413.579 94.4361 411.217 95.9079 408.547 95.9079C406.803 95.9079 404.948 95.3148 403.47 94.2164L405.103 91.7999Z" fill="#231F20"/>
<path d="M209.154 49.3135C195.844 49.3135 185.006 60.0998 185.006 73.3466C185.006 86.5933 195.844 97.3797 209.154 97.3797C222.465 97.3797 233.303 86.5933 233.303 73.3466C233.303 60.0998 222.465 49.3135 209.154 49.3135ZM209.154 87.6039C201.318 87.6039 194.939 81.1453 194.939 73.3466C194.939 65.5479 201.318 59.0893 209.154 59.0893C216.991 59.0893 223.37 65.5479 223.37 73.3466C223.37 81.1453 216.991 87.6039 209.154 87.6039Z" fill="#00B8B0"/>
</svg>
